# xmcd
#
# Track frame offsets:
#	150
#	15714
#	41423
#	60733
#	85267
#	107064
#	127104
#	155021
#	173868
#	200506
#
# Disc length: 2937 seconds
#
# Revision: 0
# Processed by: cddbd v1.5.2PL0 Copyright (c) Steve Scherf et al.
# Submitted via: dBpowerAMP V4.0
#
DISCID=850b770a
DTITLE=Various Gospel - Siritual Journey-Guitar Piano Colection
DYEAR=1900
DGENRE=
TTITLE0=Will The Circle Be Umbroken
TTITLE1=Swing Low, Sweet Chariot
TTITLE2=This Is My Father's World
TTITLE3=Amazing Grace
TTITLE4=Be Thou My Vision
TTITLE5=By And By
TTITLE6=Give Me Jesus
TTITLE7=Just a Closer Walk With Jesus
TTITLE8=Softly and Tenderly
TTITLE9=Shenandoah
EXTD=Siritual Journey-Guitar Piano Colection\nPraise And Worship- Guitar Piano Colection - CD-2007\n
EXTT0=
EXTT1=
EXTT2=
EXTT3=
EXTT4=
EXTT5=
EXTT6=
EXTT7=
EXTT8=
EXTT9=
PLAYORDER=
